# xmcd
#
# Track frame offsets:
#	150
#	18927
#	35046
#	55192
#	70372
#	74210
#	88411
#	101067
#	109243
#	121841
#	134418
#	152440
#	168634
#	187248
#	192714
#	209378
#	231897
#	257168
#
# Disc length: 4202 seconds
# Revision: 0
# Processed by: cddbd v1.5.2PL0 Copyright (c) Steve Scherf et al.
# Submitted via: dBpowerAMP V12.0
#
DISCID=1d106812
DTITLE=Siriusmo - Mosaik (Promo CD)
DYEAR=2011
DGENRE=Club
TTITLE0=High Together (Album Version)
TTITLE1=Feromonikon [CD Edit)
TTITLE2=Traum
TTITLE3=Tierpark Berlin
TTITLE4=Call Me
TTITLE5=Mosaik
TTITLE6=Bad Idea
TTITLE7=Lass den Vogel frei!
TTITLE8=123 (Album Version)
TTITLE9=Idiologie
TTITLE10=Einmal in der Woche schreien
TTITLE11=Good Idea
TTITLE12=Nights Off
TTITLE13=Peeved
TTITLE14=Someone Died [CD Edit)
TTITLE15=Goldene Kugel
TTITLE16=Signal
TTITLE17=Red Knob
EXTD=
EXTT0=
EXTT1=
EXTT2=
EXTT3=
EXTT4=
EXTT5=
EXTT6=
EXTT7=
EXTT8=
EXTT9=
EXTT10=
EXTT11=
EXTT12=
EXTT13=
EXTT14=
EXTT15=
EXTT16=
EXTT17=
PLAYORDER=
